<?xml version="1.0" encoding="UTF-8" standalone="no"?>
<svg
   xmlns:dc="http://purl.org/dc/elements/1.1/"
   xmlns:cc="http://creativecommons.org/ns#"
   xmlns:rdf="http://www.w3.org/1999/02/22-rdf-syntax-ns#"
   xmlns:svg="http://www.w3.org/2000/svg"
   xmlns="http://www.w3.org/2000/svg"
   xmlns:sodipodi="http://sodipodi.sourceforge.net/DTD/sodipodi-0.dtd"
   xmlns:inkscape="http://www.inkscape.org/namespaces/inkscape"
   version="1.1"
   x="0px"
   y="0px"
   viewBox="0 0 100 100"
   enable-background="new 0 0 55 55"
   xml:space="preserve"
   id="svg10"
   sodipodi:docname="noun_find_2238490.svg"
   width="100"
   height="100"
   inkscape:version="1.0.2-2 (e86c870879, 2021-01-15)"><metadata
     id="metadata16"><rdf:RDF><cc:Work
         rdf:about=""><dc:format>image/svg+xml</dc:format><dc:type
           rdf:resource="http://purl.org/dc/dcmitype/StillImage" /><dc:title></dc:title></cc:Work></rdf:RDF></metadata><defs
     id="defs14" /><sodipodi:namedview
     pagecolor="#ffffff"
     bordercolor="#666666"
     borderopacity="1"
     objecttolerance="10"
     gridtolerance="10"
     guidetolerance="10"
     inkscape:pageopacity="0"
     inkscape:pageshadow="2"
     inkscape:window-width="1920"
     inkscape:window-height="1172"
     id="namedview12"
     showgrid="false"
     inkscape:zoom="5.3454545"
     inkscape:cx="51.250439"
     inkscape:cy="24.962321"
     inkscape:window-x="-8"
     inkscape:window-y="-8"
     inkscape:window-maximized="1"
     inkscape:current-layer="svg10" /><g
     id="g20"
     transform="matrix(2.06773,0,0,2.06773,-6.4461079,-6.6321151)"><path
       d="m 14.521,13.104 c -0.391,-0.391 -1.023,-0.391 -1.414,0 -2.199,2.199 -3.41,5.122 -3.41,8.231 0,3.109 1.211,6.032 3.41,8.23 0.195,0.195 0.451,0.293 0.707,0.293 0.256,0 0.512,-0.098 0.707,-0.293 0.391,-0.391 0.391,-1.023 0,-1.414 -1.821,-1.821 -2.824,-4.241 -2.824,-6.816 0,-2.575 1.003,-4.996 2.824,-6.817 0.39,-0.39 0.39,-1.023 0,-1.414 z"
       id="path2" /><path
       d="m 47.924,42.052 -8.238,-8.238 c -0.391,-0.391 -1.023,-0.391 -1.414,0 l -0.175,0.175 -3.959,-3.96 c 1.735,-2.544 2.674,-5.545 2.674,-8.692 0,-4.134 -1.61,-8.02 -4.533,-10.942 C 29.356,7.473 25.47,5.861 21.337,5.861 c -4.133,0 -8.02,1.609 -10.942,4.532 -2.922,2.923 -4.533,6.809 -4.533,10.942 0,4.133 1.61,8.02 4.533,10.942 2.923,2.922 6.809,4.532 10.942,4.532 3.147,0 6.148,-0.938 8.692,-2.674 l 3.96,3.96 -0.174,0.174 c -0.391,0.391 -0.391,1.023 0,1.414 l 8.238,8.238 c 0.784,0.784 1.827,1.216 2.936,1.216 1.108,0 2.151,-0.432 2.936,-1.216 1.618,-1.616 1.618,-4.251 -10e-4,-5.869 z M 11.809,30.864 C 9.264,28.319 7.862,24.935 7.862,21.336 c 0,-3.599 1.402,-6.983 3.947,-9.528 2.545,-2.545 5.929,-3.946 9.528,-3.946 3.599,0 6.983,1.401 9.528,3.946 2.545,2.545 3.947,5.929 3.947,9.528 0,3.599 -1.402,6.983 -3.947,9.528 -2.545,2.545 -5.929,3.946 -9.528,3.946 -3.599,0 -6.983,-1.401 -9.528,-3.946 z m 19.799,2.023 c 0.225,-0.2 0.456,-0.394 0.671,-0.608 0.215,-0.214 0.408,-0.445 0.609,-0.671 l 3.795,3.795 -1.28,1.28 z M 46.51,46.509 c -0.813,0.813 -2.23,0.813 -3.043,0 l -7.531,-7.531 0.172,-0.172 c 0.001,-10e-4 0.002,-10e-4 0.003,-0.002 l 2.694,-2.694 c 0,0 0,-10e-4 10e-4,-10e-4 l 0.173,-0.174 7.531,7.531 c 0.839,0.839 0.839,2.204 0,3.043 z"
       id="path4" /></g></svg>
